<svg xmlns="http://www.w3.org/2000/svg" width="24" height="19.5" viewBox="0 0 24 19.5">
  <path id="twitter" d="M24,50.308a10.258,10.258,0,0,1-2.835.777,4.893,4.893,0,0,0,2.164-2.72,9.833,9.833,0,0,1-3.12,1.191A4.92,4.92,0,0,0,11.7,52.922a5.066,5.066,0,0,0,.114,1.122A13.927,13.927,0,0,1,1.671,48.9a4.922,4.922,0,0,0,1.512,6.576A4.859,4.859,0,0,1,.96,54.867v.054A4.943,4.943,0,0,0,4.9,59.756a4.911,4.911,0,0,1-1.29.162,4.35,4.35,0,0,1-.932-.084,4.967,4.967,0,0,0,4.6,3.428,9.886,9.886,0,0,1-6.1,2.1A9.216,9.216,0,0,1,0,65.292,13.852,13.852,0,0,0,7.548,67.5a13.907,13.907,0,0,0,14-14c0-.217-.007-.427-.018-.636A9.816,9.816,0,0,0,24,50.308Z" transform="translate(0 -48)" fill="#57beb5"/>
</svg>
